<svg  xmlns="http://www.w3.org/2000/svg" xmlns:xlink="http://www.w3.org/1999/xlink" width="961" height="300" viewBox="0 0 985 324"><path transform="translate(0 100)" d="M53,-26.1L88.1,-26.1L88.1,-67L53,-67L53,-83.9L46.6,-83.9L46.6,-67L11.7,-67L11.7,-26L46.6,-26L46.6,6.1L53,6.1L53,-26.1ZM17.7,-32L17.7,-61.2L46.6,-61.2L46.6,-32L17.7,-32ZM53,-32.1L53,-61.2L81.9,-61.2L81.9,-32.1L53,-32.1Z"></path><path transform="translate(100 100)" d="M56.9,-70.2C55.1,-73.7 51.6,-80 49.1,-84.3L42.9,-82.6C45.4,-78 48.7,-71.5 50.3,-68.1L56.9,-70.2ZM50.3,-17.4C60.5,-8.3 75.6,1.4 91.3,5.7L93.5,-0.2C80,-3.6 65.5,-13.5 54.8,-22.3C64,-31.5 72.7,-46.8 78,-61.2L93.4,-61.2L93.4,-67L7,-67L7,-61.2L22,-61.2C24.6,-54.6 28,-47.4 32,-40.7L32.5,-39.8C36.5,-33.1 41,-26.9 45.6,-22.1C35.7,-13.7 20.6,-4.1 6.4,0.1L8.7,6.1C24.6,1 40.2,-8.5 50.3,-17.4ZM28.4,-61.2L70.8,-61.2C70.7,-60.9 70.6,-60.6 70.4,-60.3L70,-59.3C68.4,-55.5 66.6,-51.5 64.7,-47.6L64.2,-46.7C60.2,-38.9 55.6,-31.6 50.5,-26.4C41.8,-35.1 33.3,-49.1 28.4,-61.2Z"></path><path transform="translate(200 100)" d="M16.8,-72.6L83.6,-72.6L83.6,-2.6C83.6,-1 82.6,0.3 80.8,0.4C79.7,0.4 76.2,0.3 72.5,0.2L71.3,0.2C69.9,0.1 68.6,0.1 67.3,-0L67.7,5.9C76.8,6.1 82.6,5.8 85.5,4.8C88.3,3.9 89.5,1.3 89.5,-2.6L89.5,-78.1L10.9,-78.1L10.9,6.1L16.8,6.1L16.8,-72.6ZM38.1,-31.6C41,-27.1 44.1,-21.5 45.9,-18.1L49.9,-22C47.7,-25.9 44.3,-32.8 40.7,-38C42.4,-42.9 43.8,-49 45,-55.1L45.2,-56.1C45.7,-59 46.2,-61.8 46.7,-64.6L41.2,-65.2C40.1,-58.2 38.7,-50 36.9,-43.9C33.3,-48.7 28.6,-55.1 24.9,-59.2L21.3,-56C25.4,-50.9 30.9,-43.5 34.7,-37.3C31.3,-27.8 25.3,-16.5 19.2,-10.8L23.3,-6.9C29.1,-13 34.7,-23 38.1,-31.6ZM65.4,-31C68.7,-25.7 72.1,-18.9 73.9,-14.8L78.1,-18.4C75.9,-23.3 71.6,-31.4 67.5,-37.7C69.6,-44 71.7,-52.2 73.1,-60.2L73.3,-61.2C73.5,-62.3 73.6,-63.3 73.8,-64.3L68.5,-65C67.4,-58 65.5,-49.8 63.7,-43.5C60.3,-48.6 56.4,-54.6 52.8,-58.8L48.8,-56C51,-53.2 53.4,-49.8 55.8,-46.2L56.3,-45.3C58.2,-42.5 60.1,-39.6 61.8,-37C58.1,-27.2 52.4,-15.7 46.1,-9.9L50.3,-6.1C56.4,-12.3 61.8,-22.3 65.4,-31Z"></path><path transform="translate(300 100)" d="M15.9,-68.3L83.8,-68.3L83.8,-55.2L89.9,-55.2L89.9,-73.9L55.8,-73.9C54.5,-76.9 51.3,-81.4 48.9,-84.5L43.2,-82.7C45,-80.3 47.1,-76.9 48.4,-73.9L10,-73.9L10,-55.2L15.9,-55.2L15.9,-68.3ZM48.9,5.1C51.9,4.1 53.2,1.7 53.2,-2L53.2,-25.8L91.1,-25.8L91.1,-31.4L53.2,-31.4L53.2,-36.1C61,-40.3 70.5,-47.8 76.1,-53.7L72.1,-56.7L70.5,-56.3L25,-56.3L25,-50.6L64.1,-50.6C59.4,-46.2 52.5,-40.7 46.8,-38L46.8,-31.4L8.7,-31.4L8.7,-25.8L46.8,-25.8L46.8,-2C46.8,-0.8 45.9,0.5 44.3,0.5C42.8,0.5 37,0.5 31.9,0.3L32.5,6.1L33.9,6.1C41.6,6.1 46.1,6.1 48.9,5.1Z"></path><path transform="translate(400 100)" d="M68.6,-45.9L93.9,-45.9L93.9,-52L68.6,-52L68.6,-83.7L62.2,-83.7L62.2,-52L38.1,-52L38.1,-45.9L62.2,-45.9L62.2,6.3L68.6,6.3L68.6,-45.9ZM34.9,-68.3C31.6,-71.6 24.6,-77.8 19.7,-82.2L16,-78.4C20.8,-73.9 27.7,-67.3 31,-63.9L34.9,-68.3ZM42.3,-13.4C41.7,-14.6 40.8,-16.9 40.3,-18.6L28.7,-10.2L28.7,-53.7L6.5,-53.7L6.5,-47.9L22.5,-47.9L22.5,-10.4C22.5,-6.6 19.6,-2.7 17.9,-1.6L21.6,3.2C22.4,2.2 25.8,-1.7 42.3,-13.4Z"></path><path transform="translate(500 100)" d="M58.4,-14.4L53.2,-15.5C52.7,-6.1 51.2,0.2 49,0.2C45,0.2 39.9,-8.9 36.4,-18.7C42.8,-26.2 48.7,-37.8 52.8,-47.6L47.1,-49.2C44,-41.4 39.3,-32.1 34.3,-25.8C33.2,-29.6 31.9,-35 30.8,-40.6L30.6,-41.7C29.9,-45.4 29.3,-49.1 28.8,-52.4L59.2,-55.9L58.5,-61.4L28.1,-57.8C27.7,-62.1 27.1,-67.1 26.7,-72.1L26.7,-73.1C26.4,-76.7 26.2,-80.3 26.2,-83.7L20.2,-83.7C20.2,-81.6 20.3,-79.5 20.4,-77.3L20.5,-76.3C20.5,-75.4 20.5,-74.6 20.6,-73.7L20.6,-72.7C20.7,-72.5 20.7,-72.3 20.7,-72.2L20.7,-71.1L20.8,-70.1C21.1,-65.7 21.5,-61.3 22,-57.3L5.6,-55.3L6.1,-49.8L22.9,-51.6C23.9,-41.1 27,-27.9 29.6,-20C22.9,-13.3 13.8,-5 6.3,-1.1L9.6,4.2C17.1,0.1 25.8,-7.4 31.7,-13.5C36.1,-3 42.4,6 48.5,6C54.4,6 57.1,1 58.4,-14.4ZM85.4,5C88,3.9 89.2,1.6 89.2,-2.7L89.2,-82.9L83.5,-82.9L83.5,-2.5C83.5,-0.9 82.3,0.1 80.7,0.5C79.2,0.5 73.1,0.5 68.2,0.2L68.6,6.2C77.2,6.2 82.8,6 85.4,5ZM49.8,-68.9C48,-70.8 45.1,-73.6 42.1,-76.4L41.4,-77.1C39.7,-78.7 38,-80.2 36.4,-81.6L32.5,-78.5C34,-77 35.6,-75.4 37.3,-73.8L38.1,-73C41,-70.1 43.8,-67.2 45.7,-65.3L49.8,-68.9ZM70.1,-73.5L64.5,-73.5L64.5,-20.3L70.1,-20.3L70.1,-73.5Z"></path><path transform="translate(0 200)" d="M52.4,-74L1.6,-74L1.6,-68.3L23.5,-68.3L23.5,-0L29.9,-0L29.9,-68.3L51.6,-68.3L52.4,-74Z"></path><path transform="translate(53 200)" d="M36.3,-57.7C28.3,-57.7 22.2,-53.6 17.6,-47.2L17.6,-80.2L11.3,-79.5L11.3,-0L17.6,-0L17.6,-40.9C22.1,-47.8 27.4,-52.6 35.1,-52.6C41.9,-52.6 45.7,-48.7 45.7,-39.5L45.7,-0L51.9,-0L51.9,-40.4C51.9,-51.1 46.4,-57.7 36.3,-57.7Z"></path><path transform="translate(116 200)" d="M51.5,-30.3C51.5,-47 44.2,-57.7 29.5,-57.7C15.7,-57.7 6.9,-45.8 6.9,-27.8C6.9,-9.6 16,1.2 30.9,1.2C38.3,1.2 44.1,-1.4 49.4,-5.7L46.4,-9.7C41.5,-6 37.4,-4.1 31.2,-4.1C21.5,-4.1 14.4,-10.5 13.6,-25.8L51.3,-25.8C51.4,-26.9 51.5,-28.6 51.5,-30.3ZM45.4,-30.7L13.5,-30.7C14.3,-45.9 21,-52.5 29.7,-52.5C40.4,-52.5 45.4,-44.6 45.4,-32.3L45.4,-30.7Z"></path><path transform="translate(174 200)" d=""></path><path transform="translate(204 200)" d="M29.4,-74L12,-74L12,-0L18.5,-0L18.5,-28.8L29.1,-28.8C45.1,-28.8 56.7,-35.2 56.7,-51.8C56.7,-67.2 46.5,-74 29.4,-74ZM29.1,-34.1L18.5,-34.1L18.5,-68.7L29.3,-68.7C42.2,-68.7 49.9,-64.3 49.9,-51.7C49.9,-38.1 41.4,-34.1 29.1,-34.1Z"></path><path transform="translate(266 200)" d="M33.2,-57.7C25.4,-57.7 20.2,-53.1 17.3,-43.8L16.7,-56.5L11.3,-56.5L11.3,-0L17.6,-0L17.6,-34.6C20.6,-46.1 24.8,-51.7 32.6,-51.7C34.6,-51.7 36.1,-51.5 37.6,-51.1L38.8,-57C37.4,-57.5 35.4,-57.7 33.2,-57.7Z"></path><path transform="translate(305 200)" d="M30.9,-57.7C16.1,-57.7 6.9,-46.3 6.9,-28.2C6.9,-10 15.8,1.2 30.8,1.2C45.7,1.2 54.8,-10.2 54.8,-28.4C54.8,-46.9 45.9,-57.7 30.9,-57.7ZM30.9,-52.4C41.8,-52.4 48.2,-44.3 48.2,-28.4C48.2,-12.2 41.6,-4.1 30.8,-4.1C20,-4.1 13.6,-12.3 13.6,-28.2C13.6,-44.4 20.2,-52.4 30.9,-52.4Z"></path><path transform="translate(367 200)" d="M14.5,-81.3C11.7,-81.3 9.8,-79.3 9.8,-76.8C9.8,-74.3 11.7,-72.3 14.5,-72.3C17.4,-72.3 19.2,-74.3 19.2,-76.8C19.2,-79.3 17.4,-81.3 14.5,-81.3ZM17.7,-56.5L11.4,-56.5L11.4,-1.8C11.4,10.7 8.1,13.7 0.6,17.4L2.5,21.9C12.7,17.2 17.7,13.1 17.7,-2.1L17.7,-56.5Z"></path><path transform="translate(396 200)" d="M51.5,-30.3C51.5,-47 44.2,-57.7 29.5,-57.7C15.7,-57.7 6.9,-45.8 6.9,-27.8C6.9,-9.6 16,1.2 30.9,1.2C38.3,1.2 44.1,-1.4 49.4,-5.7L46.4,-9.7C41.5,-6 37.4,-4.1 31.2,-4.1C21.5,-4.1 14.4,-10.5 13.6,-25.8L51.3,-25.8C51.4,-26.9 51.5,-28.6 51.5,-30.3ZM45.4,-30.7L13.5,-30.7C14.3,-45.9 21,-52.5 29.7,-52.5C40.4,-52.5 45.4,-44.6 45.4,-32.3L45.4,-30.7Z"></path><path transform="translate(454 200)" d="M30.8,-57.7C16.3,-57.7 6.9,-46 6.9,-27.9C6.9,-9.5 16.4,1.2 30.9,1.2C37.3,1.2 42.7,-1.1 47.1,-4.9L44.1,-9.1C40.1,-6 36.3,-4.3 31,-4.3C20.7,-4.3 13.6,-11.8 13.6,-28C13.6,-44.3 20.8,-52.3 31.1,-52.3C36.3,-52.3 40,-50.8 43.6,-47.8L46.8,-51.9C42,-56.1 37.2,-57.7 30.8,-57.7Z"></path><path transform="translate(504 200)" d="M34.7,-6.7C31.9,-5.1 29.2,-4.2 26,-4.2C20.3,-4.2 17.7,-7.5 17.7,-14L17.7,-51.4L31.5,-51.4L32.3,-56.5L17.7,-56.5L17.7,-70.7L11.4,-70L11.4,-56.5L1.9,-56.5L1.9,-51.4L11.4,-51.4L11.4,-13.7C11.4,-3.9 16.7,1.2 25.3,1.2C29.8,1.2 33.7,-0.1 37.2,-2.4L34.7,-6.7Z"></path><path transform="translate(541 200)" d=""></path><path transform="translate(571 200)" d="M12,-0L18.5,-0L18.5,-34.3L44.1,-34.3L44.1,-39.7L18.5,-39.7L18.5,-68.6L48.2,-68.6L48.9,-74L12,-74L12,-0Z"></path><path transform="translate(622 200)" d="M30.9,-57.7C16.1,-57.7 6.9,-46.3 6.9,-28.2C6.9,-10 15.8,1.2 30.8,1.2C45.7,1.2 54.8,-10.2 54.8,-28.4C54.8,-46.9 45.9,-57.7 30.9,-57.7ZM30.9,-52.4C41.8,-52.4 48.2,-44.3 48.2,-28.4C48.2,-12.2 41.6,-4.1 30.8,-4.1C20,-4.1 13.6,-12.3 13.6,-28.2C13.6,-44.4 20.2,-52.4 30.9,-52.4Z"></path><path transform="translate(684 200)" d="M33.2,-57.7C25.4,-57.7 20.2,-53.1 17.3,-43.8L16.7,-56.5L11.3,-56.5L11.3,-0L17.6,-0L17.6,-34.6C20.6,-46.1 24.8,-51.7 32.6,-51.7C34.6,-51.7 36.1,-51.5 37.6,-51.1L38.8,-57C37.4,-57.5 35.4,-57.7 33.2,-57.7Z"></path><path transform="translate(724 200)" d=""></path><path transform="translate(754 200)" d="M84.1,-74L78,-74L63.8,-6L47.3,-74L40.1,-74L23.9,-6L9.8,-74L3.2,-74L19.5,-0L27.4,-0L43.6,-66.7L59.8,-0L67.9,-0L84.1,-74Z"></path><path transform="translate(841 200)" d="M51.5,-30.3C51.5,-47 44.2,-57.7 29.5,-57.7C15.7,-57.7 6.9,-45.8 6.9,-27.8C6.9,-9.6 16,1.2 30.9,1.2C38.3,1.2 44.1,-1.4 49.4,-5.7L46.4,-9.7C41.5,-6 37.4,-4.1 31.2,-4.1C21.5,-4.1 14.4,-10.5 13.6,-25.8L51.3,-25.8C51.4,-26.9 51.5,-28.6 51.5,-30.3ZM45.4,-30.7L13.5,-30.7C14.3,-45.9 21,-52.5 29.7,-52.5C40.4,-52.5 45.4,-44.6 45.4,-32.3L45.4,-30.7Z"></path><path transform="translate(899 200)" d="M34.6,-57.7C27.2,-57.7 21.6,-54.1 17.6,-48.7L17.6,-80.2L11.3,-79.5L11.3,-0L16.7,-0L17.4,-7.1C21.1,-2.4 26.6,1.2 33.7,1.2C47.3,1.2 55.1,-10.4 55.1,-28.5C55.1,-47.3 47.4,-57.7 34.6,-57.7ZM32.5,-4C26.1,-4 21.2,-7.7 17.6,-12.9L17.6,-42.8C21.4,-48.2 25.9,-52.5 33.3,-52.5C42.9,-52.5 48.5,-45.1 48.5,-28.5C48.5,-12.1 42.4,-4 32.5,-4Z"></path></svg>