<svg  xmlns="http://www.w3.org/2000/svg" xmlns:xlink="http://www.w3.org/1999/xlink" width="1140" height="300" viewBox="0 0 1164 324"><path transform="translate(0 100)" d="M3.2,-0L3.2,-78L56.8,-78L56.8,-0L3.2,-0ZM9.2,-6L50.8,-6L50.8,-72L9.2,-72L9.2,-6Z"></path><path transform="translate(60 100)" d="M3.2,-0L3.2,-78L56.8,-78L56.8,-0L3.2,-0ZM9.2,-6L50.8,-6L50.8,-72L9.2,-72L9.2,-6Z"></path><path transform="translate(120 100)" d="M3.2,-0L3.2,-78L56.8,-78L56.8,-0L3.2,-0ZM9.2,-6L50.8,-6L50.8,-72L9.2,-72L9.2,-6Z"></path><path transform="translate(180 100)" d="M3.2,-0L3.2,-78L56.8,-78L56.8,-0L3.2,-0ZM9.2,-6L50.8,-6L50.8,-72L9.2,-72L9.2,-6Z"></path><path transform="translate(240 100)" d="M3.2,-0L3.2,-78L56.8,-78L56.8,-0L3.2,-0ZM9.2,-6L50.8,-6L50.8,-72L9.2,-72L9.2,-6Z"></path><path transform="translate(300 100)" d="M3.2,-0L3.2,-78L56.8,-78L56.8,-0L3.2,-0ZM9.2,-6L50.8,-6L50.8,-72L9.2,-72L9.2,-6Z"></path><path transform="translate(0 200)" d="M34.2,-62.5L34.2,-0L25.8,-0L25.8,-62.5L2.5,-62.5L2.5,-69.8L57.5,-69.8L57.5,-62.5L34.2,-62.5Z"></path><path transform="translate(60 200)" d="M9.8,-74L17.8,-74L17.8,-43.2L18.2,-43.2Q19,-45.1 20.2,-46.85Q21.4,-48.6 23.15,-49.9Q24.9,-51.2 27.3,-52Q29.7,-52.8 32.9,-52.8Q41,-52.8 45.9,-47.65Q50.8,-42.5 50.8,-33.1L50.8,-0L42.8,-0L42.8,-31.7Q42.8,-38.8 39.7,-42.25Q36.6,-45.7 30.6,-45.7Q28.2,-45.7 25.9,-45.1Q23.6,-44.5 21.8,-43.3Q20,-42.1 18.9,-40.2Q17.8,-38.3 17.8,-35.8L17.8,-0L9.8,-0L9.8,-74Z"></path><path transform="translate(120 200)" d="M30.9,1.2Q25.3,1.2 20.85,-0.7Q16.4,-2.6 13.25,-6.15Q10.1,-9.7 8.4,-14.65Q6.7,-19.6 6.7,-25.7Q6.7,-31.9 8.45,-36.9Q10.2,-41.9 13.3,-45.45Q16.4,-49 20.75,-50.9Q25.1,-52.8 30.4,-52.8Q35.6,-52.8 39.85,-50.9Q44.1,-49 47.1,-45.65Q50.1,-42.3 51.7,-37.7Q53.3,-33.1 53.3,-27.6L53.3,-23.8L15.1,-23.8L15.1,-21.4Q15.1,-18 16.2,-15.1Q17.3,-12.2 19.35,-10.1Q21.4,-8 24.35,-6.85Q27.3,-5.7 30.9,-5.7Q36.1,-5.7 39.9,-8.1Q43.7,-10.5 45.7,-14.7L51.6,-10.7Q49.3,-5.5 43.95,-2.15Q38.6,1.2 30.9,1.2ZM30.4,-46.2Q27.1,-46.2 24.3,-45Q21.5,-43.8 19.45,-41.7Q17.4,-39.6 16.25,-36.75Q15.1,-33.9 15.1,-30.5L15.1,-29.8L44.7,-29.8L44.7,-30.9Q44.7,-34.3 43.65,-37.1Q42.6,-39.9 40.75,-41.95Q38.9,-44 36.25,-45.1Q33.6,-46.2 30.4,-46.2Z"></path><path transform="translate(180 200)" d=""></path><path transform="translate(240 200)" d="M9,-0L9,-69.8L34.4,-69.8Q44.1,-69.8 49.2,-64.5Q54.3,-59.2 54.3,-49.7Q54.3,-40.2 49.2,-34.9Q44.1,-29.6 34.4,-29.6L17.4,-29.6L17.4,-0L9,-0ZM17.4,-36.9L34.2,-36.9Q39.5,-36.9 42.45,-39.55Q45.4,-42.2 45.4,-47.1L45.4,-52.3Q45.4,-57.2 42.45,-59.85Q39.5,-62.5 34.2,-62.5L17.4,-62.5L17.4,-36.9Z"></path><path transform="translate(300 200)" d="M7.7,-6.8L22.8,-6.8L22.8,-44.8L7.7,-44.8L7.7,-51.6L30.8,-51.6L30.8,-38.6L31.3,-38.6Q32.9,-44.7 37.35,-48.15Q41.8,-51.6 48.7,-51.6L55.9,-51.6L55.9,-43.6L46.2,-43.6Q39.3,-43.6 35.05,-39.6Q30.8,-35.6 30.8,-29.1L30.8,-6.8L50.8,-6.8L50.8,-0L7.7,-0L7.7,-6.8Z"></path><path transform="translate(360 200)" d="M30,1.2Q24.6,1.2 20.25,-0.7Q15.9,-2.6 12.85,-6.15Q9.8,-9.7 8.2,-14.65Q6.6,-19.6 6.6,-25.8Q6.6,-31.9 8.2,-36.9Q9.8,-41.9 12.85,-45.45Q15.9,-49 20.25,-50.9Q24.6,-52.8 30,-52.8Q35.4,-52.8 39.75,-50.9Q44.1,-49 47.15,-45.45Q50.2,-41.9 51.8,-36.9Q53.4,-31.9 53.4,-25.8Q53.4,-19.6 51.8,-14.65Q50.2,-9.7 47.15,-6.15Q44.1,-2.6 39.75,-0.7Q35.4,1.2 30,1.2ZM30,-5.7Q36.7,-5.7 40.8,-9.7Q44.9,-13.7 44.9,-22.1L44.9,-29.5Q44.9,-37.9 40.8,-41.9Q36.7,-45.9 30,-45.9Q23.3,-45.9 19.2,-41.9Q15.1,-37.9 15.1,-29.5L15.1,-22.1Q15.1,-13.7 19.2,-9.7Q23.3,-5.7 30,-5.7Z"></path><path transform="translate(420 200)" d="M10.2,13.2L35.2,13.2L35.2,-44.8L9.3,-44.8L9.3,-51.6L43.2,-51.6L43.2,8.2Q43.2,13.4 40.45,16.7Q37.7,20 31.8,20L10.2,20L10.2,13.2ZM39.2,-63Q35.7,-63 34.3,-64.45Q32.9,-65.9 32.9,-68.1L32.9,-69.7Q32.9,-71.9 34.3,-73.35Q35.7,-74.8 39.2,-74.8Q42.7,-74.8 44.1,-73.35Q45.5,-71.9 45.5,-69.7L45.5,-68.1Q45.5,-65.9 44.1,-64.45Q42.7,-63 39.2,-63Z"></path><path transform="translate(480 200)" d="M30.9,1.2Q25.3,1.2 20.85,-0.7Q16.4,-2.6 13.25,-6.15Q10.1,-9.7 8.4,-14.65Q6.7,-19.6 6.7,-25.7Q6.7,-31.9 8.45,-36.9Q10.2,-41.9 13.3,-45.45Q16.4,-49 20.75,-50.9Q25.1,-52.8 30.4,-52.8Q35.6,-52.8 39.85,-50.9Q44.1,-49 47.1,-45.65Q50.1,-42.3 51.7,-37.7Q53.3,-33.1 53.3,-27.6L53.3,-23.8L15.1,-23.8L15.1,-21.4Q15.1,-18 16.2,-15.1Q17.3,-12.2 19.35,-10.1Q21.4,-8 24.35,-6.85Q27.3,-5.7 30.9,-5.7Q36.1,-5.7 39.9,-8.1Q43.7,-10.5 45.7,-14.7L51.6,-10.7Q49.3,-5.5 43.95,-2.15Q38.6,1.2 30.9,1.2ZM30.4,-46.2Q27.1,-46.2 24.3,-45Q21.5,-43.8 19.45,-41.7Q17.4,-39.6 16.25,-36.75Q15.1,-33.9 15.1,-30.5L15.1,-29.8L44.7,-29.8L44.7,-30.9Q44.7,-34.3 43.65,-37.1Q42.6,-39.9 40.75,-41.95Q38.9,-44 36.25,-45.1Q33.6,-46.2 30.4,-46.2Z"></path><path transform="translate(540 200)" d="M31.8,1.2Q26.2,1.2 21.85,-0.75Q17.5,-2.7 14.5,-6.2Q11.5,-9.7 9.95,-14.7Q8.4,-19.7 8.4,-25.8Q8.4,-31.9 10,-36.9Q11.6,-41.9 14.6,-45.45Q17.6,-49 21.9,-50.9Q26.2,-52.8 31.7,-52.8Q39.2,-52.8 43.9,-49.5Q48.6,-46.2 50.8,-40.9L44.4,-37.5Q43,-41.5 39.75,-43.7Q36.5,-45.9 31.7,-45.9Q28.2,-45.9 25.45,-44.75Q22.7,-43.6 20.8,-41.5Q18.9,-39.4 17.95,-36.5Q17,-33.6 17,-30.2L17,-21.4Q17,-18 17.95,-15.1Q18.9,-12.2 20.8,-10.1Q22.7,-8 25.5,-6.85Q28.3,-5.7 31.9,-5.7Q37.1,-5.7 40.5,-8.1Q43.9,-10.5 45.9,-14.7L51.6,-10.8Q49.3,-5.6 44.45,-2.2Q39.6,1.2 31.8,1.2Z"></path><path transform="translate(600 200)" d="M32.5,-0Q26.6,-0 23.85,-3.3Q21.1,-6.6 21.1,-11.8L21.1,-44.8L3.9,-44.8L3.9,-51.6L16.7,-51.6Q19.3,-51.6 20.35,-52.65Q21.4,-53.7 21.4,-56.3L21.4,-69.8L29.1,-69.8L29.1,-51.6L52.6,-51.6L52.6,-44.8L29.1,-44.8L29.1,-6.8L52.6,-6.8L52.6,-0L32.5,-0Z"></path><path transform="translate(660 200)" d=""></path><path transform="translate(720 200)" d="M9,-0L9,-69.8L53,-69.8L53,-62.5L17.4,-62.5L17.4,-39L50,-39L50,-31.7L17.4,-31.7L17.4,-0L9,-0Z"></path><path transform="translate(780 200)" d="M30,1.2Q24.6,1.2 20.25,-0.7Q15.9,-2.6 12.85,-6.15Q9.8,-9.7 8.2,-14.65Q6.6,-19.6 6.6,-25.8Q6.6,-31.9 8.2,-36.9Q9.8,-41.9 12.85,-45.45Q15.9,-49 20.25,-50.9Q24.6,-52.8 30,-52.8Q35.4,-52.8 39.75,-50.9Q44.1,-49 47.15,-45.45Q50.2,-41.9 51.8,-36.9Q53.4,-31.9 53.4,-25.8Q53.4,-19.6 51.8,-14.65Q50.2,-9.7 47.15,-6.15Q44.1,-2.6 39.75,-0.7Q35.4,1.2 30,1.2ZM30,-5.7Q36.7,-5.7 40.8,-9.7Q44.9,-13.7 44.9,-22.1L44.9,-29.5Q44.9,-37.9 40.8,-41.9Q36.7,-45.9 30,-45.9Q23.3,-45.9 19.2,-41.9Q15.1,-37.9 15.1,-29.5L15.1,-22.1Q15.1,-13.7 19.2,-9.7Q23.3,-5.7 30,-5.7Z"></path><path transform="translate(840 200)" d="M7.7,-6.8L22.8,-6.8L22.8,-44.8L7.7,-44.8L7.7,-51.6L30.8,-51.6L30.8,-38.6L31.3,-38.6Q32.9,-44.7 37.35,-48.15Q41.8,-51.6 48.7,-51.6L55.9,-51.6L55.9,-43.6L46.2,-43.6Q39.3,-43.6 35.05,-39.6Q30.8,-35.6 30.8,-29.1L30.8,-6.8L50.8,-6.8L50.8,-0L7.7,-0L7.7,-6.8Z"></path><path transform="translate(900 200)" d=""></path><path transform="translate(960 200)" d="M9,-0L3.5,-69.8L11,-69.8L13.9,-29.8L15.4,-8.7L16.2,-8.7L25.4,-51.6L34.8,-51.6L44,-8.7L44.8,-8.7L46.3,-29.8L49.2,-69.8L56.5,-69.8L51,-0L38.9,-0L30.4,-41.7L29.6,-41.7L21.1,-0L9,-0Z"></path><path transform="translate(1020 200)" d="M30.9,1.2Q25.3,1.2 20.85,-0.7Q16.4,-2.6 13.25,-6.15Q10.1,-9.7 8.4,-14.65Q6.7,-19.6 6.7,-25.7Q6.7,-31.9 8.45,-36.9Q10.2,-41.9 13.3,-45.45Q16.4,-49 20.75,-50.9Q25.1,-52.8 30.4,-52.8Q35.6,-52.8 39.85,-50.9Q44.1,-49 47.1,-45.65Q50.1,-42.3 51.7,-37.7Q53.3,-33.1 53.3,-27.6L53.3,-23.8L15.1,-23.8L15.1,-21.4Q15.1,-18 16.2,-15.1Q17.3,-12.2 19.35,-10.1Q21.4,-8 24.35,-6.85Q27.3,-5.7 30.9,-5.7Q36.1,-5.7 39.9,-8.1Q43.7,-10.5 45.7,-14.7L51.6,-10.7Q49.3,-5.5 43.95,-2.15Q38.6,1.2 30.9,1.2ZM30.4,-46.2Q27.1,-46.2 24.3,-45Q21.5,-43.8 19.45,-41.7Q17.4,-39.6 16.25,-36.75Q15.1,-33.9 15.1,-30.5L15.1,-29.8L44.7,-29.8L44.7,-30.9Q44.7,-34.3 43.65,-37.1Q42.6,-39.9 40.75,-41.95Q38.9,-44 36.25,-45.1Q33.6,-46.2 30.4,-46.2Z"></path><path transform="translate(1080 200)" d="M9.5,-74L17.5,-74L17.5,-43.2L17.9,-43.2Q22.9,-52.8 33.8,-52.8Q43.3,-52.8 48.65,-45.7Q54,-38.6 54,-25.8Q54,-13 48.65,-5.9Q43.3,1.2 33.8,1.2Q22.9,1.2 17.9,-8.4L17.5,-8.4L17.5,-0L9.5,-0L9.5,-74ZM30.7,-5.9Q37.7,-5.9 41.55,-10.15Q45.4,-14.4 45.4,-21.4L45.4,-30.2Q45.4,-37.2 41.55,-41.45Q37.7,-45.7 30.7,-45.7Q28,-45.7 25.6,-45Q23.2,-44.3 21.4,-42.95Q19.6,-41.6 18.55,-39.65Q17.5,-37.7 17.5,-35.1L17.5,-16.5Q17.5,-13.9 18.55,-11.95Q19.6,-10 21.4,-8.65Q23.2,-7.3 25.6,-6.6Q28,-5.9 30.7,-5.9Z"></path></svg>